<svg id="visual" viewBox="0 0 900 600" width="900" height="600" xmlns="http://www.w3.org/2000/svg" xmlns:xlink="http://www.w3.org/1999/xlink" version="1.1"><path d="M0 61L13.7 58C27.3 55 54.7 49 82 55C109.3 61 136.7 79 163.8 79C191 79 218 61 245.2 52C272.3 43 299.7 43 327 48C354.3 53 381.7 63 409 70C436.3 77 463.7 81 491 86C518.3 91 545.7 97 573 100C600.3 103 627.7 103 654.8 96C682 89 709 75 736.2 75C763.3 75 790.7 89 818 88C845.3 87 872.7 71 886.3 63L900 55L900 0L886.3 0C872.7 0 845.3 0 818 0C790.7 0 763.3 0 736.2 0C709 0 682 0 654.8 0C627.7 0 600.3 0 573 0C545.7 0 518.3 0 491 0C463.7 0 436.3 0 409 0C381.7 0 354.3 0 327 0C299.7 0 272.3 0 245.2 0C218 0 191 0 163.8 0C136.7 0 109.3 0 82 0C54.7 0 27.3 0 13.7 0L0 0Z" fill="#6198ff"></path><path d="M0 139L13.7 143C27.3 147 54.7 155 82 184C109.3 213 136.7 263 163.8 283C191 303 218 293 245.2 260C272.3 227 299.7 171 327 174C354.3 177 381.7 239 409 268C436.3 297 463.7 293 491 273C518.3 253 545.7 217 573 213C600.3 209 627.7 237 654.8 256C682 275 709 285 736.2 288C763.3 291 790.7 287 818 288C845.3 289 872.7 295 886.3 298L900 301L900 53L886.3 61C872.7 69 845.3 85 818 86C790.7 87 763.3 73 736.2 73C709 73 682 87 654.8 94C627.7 101 600.3 101 573 98C545.7 95 518.3 89 491 84C463.7 79 436.3 75 409 68C381.7 61 354.3 51 327 46C299.7 41 272.3 41 245.2 50C218 59 191 77 163.8 77C136.7 77 109.3 59 82 53C54.7 47 27.3 53 13.7 56L0 59Z" fill="#3c80ff"></path><path d="M0 391L13.7 402C27.3 413 54.7 435 82 445C109.3 455 136.7 453 163.8 441C191 429 218 407 245.2 386C272.3 365 299.7 345 327 354C354.3 363 381.7 401 409 414C436.3 427 463.7 415 491 404C518.3 393 545.7 383 573 385C600.3 387 627.7 401 654.8 408C682 415 709 415 736.2 425C763.3 435 790.7 455 818 452C845.3 449 872.7 423 886.3 410L900 397L900 299L886.3 296C872.7 293 845.3 287 818 286C790.7 285 763.3 289 736.2 286C709 283 682 273 654.8 254C627.7 235 600.3 207 573 211C545.7 215 518.3 251 491 271C463.7 291 436.3 295 409 266C381.7 237 354.3 175 327 172C299.7 169 272.3 225 245.2 258C218 291 191 301 163.8 281C136.7 261 109.3 211 82 182C54.7 153 27.3 145 13.7 141L0 137Z" fill="#0066ff"></path><path d="M0 487L13.7 498C27.3 509 54.7 531 82 540C109.3 549 136.7 545 163.8 541C191 537 218 533 245.2 522C272.3 511 299.7 493 327 498C354.3 503 381.7 531 409 544C436.3 557 463.7 555 491 543C518.3 531 545.7 509 573 505C600.3 501 627.7 515 654.8 513C682 511 709 493 736.2 494C763.3 495 790.7 515 818 520C845.3 525 872.7 515 886.3 510L900 505L900 395L886.3 408C872.7 421 845.3 447 818 450C790.7 453 763.3 433 736.2 423C709 413 682 413 654.8 406C627.7 399 600.3 385 573 383C545.7 381 518.3 391 491 402C463.7 413 436.3 425 409 412C381.7 399 354.3 361 327 352C299.7 343 272.3 363 245.2 384C218 405 191 427 163.8 439C136.7 451 109.3 453 82 443C54.7 433 27.3 411 13.7 400L0 389Z" fill="#0059dd"></path><path d="M0 601L13.7 601C27.3 601 54.7 601 82 601C109.3 601 136.7 601 163.8 601C191 601 218 601 245.2 601C272.3 601 299.7 601 327 601C354.3 601 381.7 601 409 601C436.3 601 463.7 601 491 601C518.3 601 545.7 601 573 601C600.3 601 627.7 601 654.8 601C682 601 709 601 736.2 601C763.3 601 790.7 601 818 601C845.3 601 872.7 601 886.3 601L900 601L900 503L886.3 508C872.7 513 845.3 523 818 518C790.7 513 763.3 493 736.2 492C709 491 682 509 654.8 511C627.7 513 600.3 499 573 503C545.7 507 518.3 529 491 541C463.7 553 436.3 555 409 542C381.7 529 354.3 501 327 496C299.7 491 272.3 509 245.2 520C218 531 191 535 163.8 539C136.7 543 109.3 547 82 538C54.7 529 27.3 507 13.7 496L0 485Z" fill="#004cbb"></path></svg>